<svg id="svg" version="1.1" xmlns="http://www.w3.org/2000/svg" xmlns:xlink="http://www.w3.org/1999/xlink" width="35" height="35" viewBox="0, 0, 400,400"><g id="svgg"><path id="path0" d="M133.200 126.426 C 132.430 126.605,130.540 126.956,129.000 127.206 C 127.460 127.456,125.750 127.806,125.200 127.984 C 124.650 128.162,123.390 128.532,122.400 128.807 C 114.715 130.940,101.815 137.505,97.783 141.336 C 97.514 141.591,96.508 142.430,95.547 143.200 C 92.432 145.696,87.177 151.226,84.332 155.000 C 80.803 159.682,74.400 171.260,74.400 172.960 C 74.400 173.224,74.251 173.611,74.070 173.820 C 73.888 174.029,73.507 175.010,73.224 176.000 C 72.941 176.990,72.563 178.160,72.385 178.600 C 72.206 179.040,71.949 179.940,71.812 180.600 C 71.676 181.260,71.389 182.520,71.174 183.400 C 70.076 187.902,69.840 190.835,69.840 200.000 C 69.840 210.367,70.160 213.324,71.973 219.700 C 72.208 220.525,72.557 221.785,72.749 222.500 C 73.357 224.770,74.868 228.489,76.852 232.600 C 86.919 253.466,107.315 269.063,129.400 272.786 C 130.940 273.046,133.175 273.425,134.367 273.629 C 146.819 275.761,167.021 271.678,178.939 264.622 C 180.446 263.730,182.246 262.667,182.939 262.261 C 193.797 255.896,206.139 240.813,211.303 227.600 C 211.517 227.050,211.852 226.287,212.047 225.905 C 212.241 225.523,212.400 224.859,212.400 224.429 C 212.400 223.999,212.559 223.549,212.754 223.429 C 212.949 223.308,213.198 222.713,213.309 222.105 C 213.420 221.497,213.774 220.010,214.095 218.800 C 214.690 216.566,215.193 214.144,215.969 209.776 C 216.527 206.640,216.527 193.360,215.969 190.224 C 215.193 185.856,214.690 183.434,214.095 181.200 C 213.774 179.990,213.420 178.503,213.309 177.895 C 213.198 177.287,212.949 176.692,212.754 176.571 C 212.559 176.451,212.400 176.001,212.400 175.571 C 212.400 175.141,212.241 174.477,212.047 174.095 C 211.852 173.713,211.513 172.950,211.292 172.400 C 206.794 161.195,197.626 148.695,189.200 142.278 C 187.990 141.356,186.910 140.498,186.800 140.371 C 185.910 139.342,179.788 135.638,175.451 133.503 C 167.943 129.807,163.037 128.290,152.576 126.431 C 149.810 125.939,135.312 125.936,133.200 126.426 M258.561 130.405 C 252.891 131.219,241.670 138.018,241.591 140.687 C 241.586 140.859,240.945 141.707,240.167 142.571 C 236.861 146.242,231.009 158.187,229.178 165.000 C 226.884 173.535,225.980 177.868,225.171 184.200 C 224.513 189.356,224.250 207.651,224.769 212.200 C 225.458 218.232,226.352 223.738,227.205 227.200 C 227.394 227.970,227.760 229.500,228.018 230.600 C 229.538 237.088,234.274 248.853,236.785 252.379 C 237.233 253.008,237.600 253.646,237.600 253.795 C 237.600 254.266,242.536 260.552,243.795 261.684 C 247.485 265.002,248.464 265.725,251.200 267.157 C 265.482 274.633,281.568 264.358,289.962 242.400 C 290.677 240.530,291.428 238.687,291.631 238.305 C 291.834 237.923,292.000 237.259,292.000 236.829 C 292.000 236.399,292.159 235.949,292.354 235.829 C 292.549 235.708,292.807 235.113,292.929 234.505 C 293.051 233.897,293.334 232.680,293.557 231.800 C 296.554 219.998,297.401 212.856,297.376 199.600 C 297.356 189.442,296.804 183.258,295.198 175.200 C 294.957 173.990,294.659 172.324,294.537 171.497 C 294.415 170.671,294.155 169.895,293.958 169.774 C 293.761 169.652,293.600 169.171,293.600 168.705 C 293.600 167.925,293.134 166.192,292.390 164.200 C 292.226 163.760,291.858 162.590,291.574 161.600 C 291.289 160.610,290.938 159.620,290.793 159.400 C 290.649 159.180,290.110 157.920,289.596 156.600 C 282.954 139.551,270.147 128.742,258.561 130.405 M316.384 138.113 C 311.774 141.758,308.277 155.126,306.315 176.600 C 305.626 184.145,305.626 215.855,306.315 223.400 C 308.179 243.812,311.387 256.766,315.658 261.135 C 317.205 262.717,318.607 262.767,320.297 261.300 C 321.475 260.277,324.000 255.875,324.000 254.845 C 324.000 254.594,324.165 254.077,324.366 253.695 C 325.660 251.240,327.600 242.164,328.831 232.800 C 331.994 208.756,330.850 170.717,326.443 153.400 C 326.219 152.520,325.924 151.260,325.788 150.600 C 325.651 149.940,325.394 149.040,325.215 148.600 C 325.037 148.160,324.653 146.990,324.362 146.000 C 322.568 139.902,318.814 136.191,316.384 138.113 " stroke="none" fill="#fbfbfb" fill-rule="evenodd"></path><path id="path1" d="M0.000 200.000 L 0.000 400.000 200.000 400.000 L 400.000 400.000 400.000 200.000 L 400.000 0.000 200.000 0.000 L 0.000 0.000 0.000 200.000 M150.400 125.641 C 156.033 126.176,157.758 126.442,158.180 126.841 C 158.389 127.038,159.096 127.200,159.752 127.200 C 160.946 127.200,163.194 127.792,164.495 128.449 C 164.877 128.642,165.541 128.800,165.971 128.800 C 166.401 128.800,166.864 128.980,167.000 129.200 C 167.136 129.420,167.509 129.600,167.828 129.600 C 170.630 129.600,183.473 136.852,189.800 142.007 C 194.652 145.960,204.400 156.661,204.400 158.035 C 204.400 158.204,204.660 158.603,204.977 158.920 C 205.964 159.907,210.256 168.007,211.643 171.500 C 211.839 171.995,212.168 172.805,212.374 173.300 C 213.276 175.473,214.790 180.575,215.548 184.000 C 216.870 189.969,217.000 191.406,217.000 200.000 C 217.000 208.594,216.870 210.031,215.548 216.000 C 214.533 220.585,213.150 224.897,211.316 229.200 C 210.373 231.411,207.858 236.580,207.618 236.800 C 207.498 236.910,207.175 237.405,206.900 237.900 C 205.659 240.135,205.357 240.608,204.700 241.355 C 204.315 241.793,204.000 242.372,204.000 242.642 C 204.000 242.912,203.865 243.193,203.700 243.267 C 203.535 243.340,202.510 244.570,201.422 246.000 C 193.338 256.629,179.333 266.803,167.800 270.426 C 166.260 270.909,164.640 271.441,164.200 271.607 C 158.340 273.818,146.197 275.108,137.694 274.422 C 128.782 273.703,122.804 272.378,115.639 269.535 C 109.794 267.216,99.778 261.436,97.287 258.944 C 96.981 258.638,96.082 257.896,95.290 257.294 C 89.000 252.520,80.419 241.661,76.566 233.600 C 73.249 226.661,71.902 222.874,70.446 216.400 C 70.223 215.410,69.808 213.610,69.525 212.400 C 68.809 209.351,68.809 191.148,69.524 187.600 C 71.202 179.273,73.015 173.709,76.169 167.200 C 80.913 157.410,87.654 148.850,96.009 142.005 C 97.214 141.019,98.290 140.097,98.400 139.958 C 99.459 138.618,110.432 132.421,114.700 130.752 C 115.195 130.558,116.005 130.232,116.500 130.026 C 117.287 129.700,119.098 129.098,123.828 127.591 C 124.504 127.376,125.503 127.200,126.048 127.200 C 126.594 127.200,127.211 127.037,127.420 126.837 C 127.827 126.448,129.200 126.260,136.365 125.614 C 138.876 125.388,141.036 125.094,141.165 124.960 C 141.294 124.827,142.570 124.844,144.000 124.999 C 145.430 125.154,148.310 125.443,150.400 125.641 M265.572 130.055 C 269.556 131.326,271.479 132.248,274.200 134.195 C 280.495 138.697,285.982 146.248,290.191 156.200 C 290.563 157.080,291.032 158.113,291.234 158.495 C 291.435 158.877,291.600 159.541,291.600 159.971 C 291.600 160.401,291.780 160.864,292.000 161.000 C 292.220 161.136,292.400 161.676,292.400 162.200 C 292.400 162.724,292.580 163.264,292.800 163.400 C 293.020 163.536,293.200 163.999,293.200 164.429 C 293.200 164.859,293.358 165.523,293.551 165.905 C 294.180 167.151,294.800 169.434,294.800 170.505 C 294.800 171.081,294.954 171.648,295.143 171.765 C 295.331 171.881,295.605 172.837,295.751 173.888 C 295.898 174.940,296.199 176.700,296.422 177.800 C 299.321 192.135,298.640 214.349,294.840 229.400 C 294.618 230.280,294.324 231.540,294.188 232.200 C 294.051 232.860,293.794 233.760,293.615 234.200 C 293.437 234.640,293.058 235.810,292.774 236.800 C 292.489 237.790,292.146 238.780,292.011 239.000 C 291.877 239.220,291.534 240.120,291.250 241.000 C 290.344 243.808,287.968 248.951,286.447 251.400 C 281.246 259.772,278.632 262.770,273.520 266.224 C 262.609 273.597,249.243 270.611,240.480 258.844 C 239.889 258.050,239.302 257.310,239.176 257.200 C 237.484 255.720,232.209 245.818,230.758 241.400 C 230.469 240.520,230.123 239.620,229.989 239.400 C 229.854 239.180,229.514 238.190,229.233 237.200 C 228.952 236.210,228.560 235.087,228.361 234.705 C 228.162 234.323,228.000 233.569,228.000 233.029 C 228.000 232.489,227.839 231.948,227.642 231.826 C 227.445 231.705,227.186 230.929,227.065 230.103 C 226.646 227.235,226.344 225.796,225.994 225.000 C 225.800 224.560,225.539 223.300,225.414 222.200 C 225.288 221.100,225.003 218.940,224.781 217.400 C 223.184 206.367,223.554 187.711,225.578 177.200 C 225.811 175.990,226.115 174.231,226.254 173.291 C 226.393 172.351,226.662 171.485,226.853 171.367 C 227.044 171.249,227.200 170.621,227.200 169.971 C 227.200 169.321,227.362 168.477,227.561 168.095 C 227.760 167.713,228.140 166.590,228.407 165.600 C 228.946 163.602,229.516 161.812,230.000 160.600 C 230.176 160.160,230.549 159.170,230.830 158.400 C 232.908 152.711,237.985 143.334,239.242 142.867 C 239.439 142.793,239.600 142.507,239.600 142.230 C 239.600 141.386,245.818 135.300,248.358 133.659 C 250.499 132.275,252.495 131.368,256.200 130.097 C 257.856 129.529,263.836 129.502,265.572 130.055 M321.039 138.437 C 322.322 139.682,324.400 143.460,324.400 144.551 C 324.400 144.882,324.580 145.264,324.800 145.400 C 325.020 145.536,325.200 146.076,325.200 146.600 C 325.200 147.124,325.359 147.651,325.554 147.771 C 325.749 147.892,326.007 148.487,326.129 149.095 C 326.251 149.703,326.552 151.010,326.797 152.000 C 330.654 167.549,332.392 193.687,331.012 215.400 C 330.083 230.003,329.492 235.032,327.615 244.300 C 327.403 245.345,327.121 246.830,326.988 247.600 C 326.855 248.370,326.601 249.360,326.425 249.800 C 326.249 250.240,325.700 251.860,325.205 253.400 C 321.810 263.956,317.134 265.888,312.900 258.485 C 312.625 258.004,312.400 257.353,312.400 257.039 C 312.400 256.724,312.265 256.407,312.099 256.333 C 311.693 256.153,310.000 251.103,310.000 250.071 C 310.000 249.618,309.839 249.148,309.642 249.026 C 309.445 248.905,309.187 248.129,309.068 247.303 C 308.949 246.476,308.658 244.900,308.422 243.800 C 303.814 222.353,303.449 184.410,307.618 160.200 C 307.845 158.880,308.133 157.080,308.257 156.200 C 308.381 155.320,308.644 154.429,308.841 154.220 C 309.038 154.011,309.200 153.344,309.200 152.739 C 309.200 152.133,309.360 151.224,309.556 150.719 C 309.752 150.213,310.332 148.450,310.845 146.800 C 313.618 137.874,317.322 134.835,321.039 138.437 " stroke="none" fill="#040404" fill-rule="evenodd"></path><path id="path2" d="M139.320 125.898 C 141.255 125.972,144.315 125.971,146.120 125.897 C 147.924 125.823,146.340 125.763,142.600 125.764 C 138.860 125.764,137.384 125.825,139.320 125.898 M131.600 126.400 L 130.200 126.695 131.600 126.719 C 132.370 126.733,133.360 126.589,133.800 126.400 L 134.600 126.056 133.800 126.081 C 133.360 126.094,132.370 126.238,131.600 126.400 M152.000 126.380 C 152.999 126.720,155.482 126.932,155.167 126.651 C 155.075 126.569,154.100 126.399,153.000 126.272 C 151.651 126.116,151.326 126.151,152.000 126.380 M157.000 127.181 C 157.768 127.529,159.910 127.756,159.567 127.453 C 159.475 127.372,158.680 127.196,157.800 127.062 C 156.685 126.893,156.442 126.929,157.000 127.181 M124.000 128.000 C 123.176 128.264,123.141 128.326,123.800 128.354 C 124.240 128.373,124.870 128.213,125.200 128.000 C 125.901 127.547,125.414 127.547,124.000 128.000 M121.200 128.800 C 120.376 129.064,120.341 129.126,121.000 129.154 C 121.440 129.173,122.070 129.013,122.400 128.800 C 123.101 128.347,122.614 128.347,121.200 128.800 M116.600 130.429 C 115.720 130.852,115.438 131.086,115.974 130.949 C 117.439 130.573,119.486 129.629,118.800 129.645 C 118.470 129.653,117.480 130.006,116.600 130.429 M169.800 130.950 C 171.560 131.674,173.576 132.566,174.280 132.933 C 174.984 133.300,175.704 133.592,175.880 133.582 C 176.379 133.555,173.286 131.993,170.245 130.738 C 168.730 130.112,167.290 129.608,167.045 129.617 C 166.800 129.627,168.040 130.227,169.800 130.950 M258.305 130.283 C 258.802 130.379,259.522 130.375,259.905 130.275 C 260.287 130.175,259.880 130.096,259.000 130.101 C 258.120 130.105,257.807 130.187,258.305 130.283 M262.100 130.276 C 262.485 130.376,263.115 130.376,263.500 130.276 C 263.885 130.175,263.570 130.093,262.800 130.093 C 262.030 130.093,261.715 130.175,262.100 130.276 M255.200 130.818 C 254.762 131.115,254.924 131.152,255.800 130.956 C 257.271 130.627,257.590 130.398,256.567 130.406 C 256.145 130.409,255.530 130.595,255.200 130.818 M264.433 130.543 C 264.525 130.621,265.230 130.801,266.000 130.942 C 266.985 131.123,267.222 131.082,266.800 130.806 C 266.258 130.450,264.037 130.203,264.433 130.543 M251.129 132.411 C 249.879 133.056,248.720 133.813,248.552 134.092 C 248.312 134.491,248.373 134.498,248.834 134.125 C 249.157 133.864,250.586 133.100,252.010 132.426 C 253.435 131.752,254.330 131.209,254.000 131.220 C 253.670 131.230,252.378 131.766,251.129 132.411 M269.633 132.149 C 270.045 132.517,272.400 133.600,272.400 133.421 C 272.400 133.190,270.182 132.000,269.753 132.000 C 269.596 132.000,269.542 132.067,269.633 132.149 M272.800 133.725 C 272.800 133.824,273.461 134.409,274.268 135.025 C 275.076 135.641,275.611 135.941,275.456 135.691 C 275.140 135.179,272.800 133.447,272.800 133.725 M106.400 135.236 C 105.736 135.779,105.669 135.915,106.200 135.640 C 107.505 134.966,108.228 134.412,107.800 134.415 C 107.580 134.417,106.950 134.786,106.400 135.236 M178.800 135.164 C 179.350 135.614,179.980 135.983,180.200 135.985 C 180.628 135.988,179.905 135.434,178.600 134.760 C 178.069 134.485,178.136 134.621,178.800 135.164 M245.951 136.031 L 244.200 137.662 246.100 136.146 C 247.145 135.313,248.000 134.579,248.000 134.515 C 248.000 134.207,247.563 134.530,245.951 136.031 M101.843 138.022 C 100.180 139.135,98.701 140.236,98.556 140.471 C 98.316 140.860,104.100 137.145,104.980 136.345 C 105.964 135.451,104.588 136.187,101.843 138.022 M278.803 139.100 C 280.426 140.915,281.825 142.400,281.914 142.400 C 282.203 142.400,278.906 138.632,277.363 137.200 C 276.533 136.430,277.181 137.285,278.803 139.100 M316.095 137.867 C 315.571 138.078,313.200 141.326,313.200 141.832 C 313.200 141.990,313.771 141.328,314.470 140.360 C 315.168 139.392,316.023 138.381,316.370 138.113 C 317.030 137.602,316.943 137.525,316.095 137.867 M319.956 138.353 C 320.482 138.757,321.243 139.518,321.647 140.044 C 322.051 140.570,322.386 140.871,322.391 140.714 C 322.407 140.215,319.937 137.600,319.459 137.609 C 319.206 137.614,319.430 137.949,319.956 138.353 M240.472 141.589 C 239.257 143.231,239.380 143.523,240.650 142.014 C 241.227 141.328,241.619 140.686,241.521 140.588 C 241.423 140.490,240.951 140.940,240.472 141.589 M312.253 143.735 C 311.525 145.478,311.044 147.053,311.317 146.800 C 311.649 146.493,313.214 142.400,313.000 142.400 C 312.896 142.400,312.560 143.001,312.253 143.735 M94.370 143.900 L 93.400 145.000 94.600 144.000 C 95.260 143.450,95.875 142.955,95.967 142.900 C 96.058 142.845,95.955 142.800,95.736 142.800 C 95.518 142.800,94.903 143.295,94.370 143.900 M194.028 146.717 C 195.662 148.432,197.360 150.071,197.800 150.360 C 198.240 150.648,196.984 149.246,195.008 147.242 C 193.033 145.239,191.335 143.600,191.236 143.600 C 191.137 143.600,192.393 145.003,194.028 146.717 M90.581 147.281 C 89.712 148.206,89.359 148.701,89.798 148.381 C 90.739 147.696,91.204 147.247,91.949 146.298 C 92.949 145.027,92.187 145.574,90.581 147.281 M324.828 147.476 C 324.813 147.958,324.980 148.464,325.200 148.600 C 325.673 148.892,325.673 148.501,325.200 147.400 C 324.869 146.629,324.855 146.631,324.828 147.476 M310.629 148.229 C 310.481 148.815,310.438 149.372,310.532 149.466 C 310.627 149.560,310.824 149.158,310.971 148.571 C 311.119 147.985,311.162 147.428,311.068 147.334 C 310.973 147.240,310.776 147.642,310.629 148.229 M285.800 148.800 C 286.141 149.460,286.511 150.000,286.621 150.000 C 286.731 150.000,286.541 149.460,286.200 148.800 C 285.859 148.140,285.489 147.600,285.379 147.600 C 285.269 147.600,285.459 148.140,285.800 148.800 M234.179 151.641 C 233.392 153.204,232.814 154.547,232.894 154.627 C 232.973 154.707,233.703 153.428,234.516 151.786 C 235.329 150.144,235.907 148.800,235.802 148.800 C 235.696 148.800,234.966 150.078,234.179 151.641 M325.634 150.200 C 325.622 150.640,325.787 151.270,326.000 151.600 C 326.514 152.395,326.514 151.396,326.000 150.200 L 325.656 149.400 325.634 150.200 M86.975 151.250 C 86.152 152.125,86.052 152.347,86.641 151.991 C 87.367 151.551,88.643 150.000,88.278 150.000 C 88.208 150.000,87.621 150.563,86.975 151.250 M310.046 150.467 C 310.021 150.834,309.896 151.464,309.770 151.867 C 309.552 152.562,309.563 152.563,309.997 151.887 C 310.248 151.496,310.373 150.866,310.273 150.487 C 310.111 149.868,310.088 149.866,310.046 150.467 M326.406 153.233 C 326.409 153.765,326.589 154.470,326.806 154.800 C 327.082 155.222,327.123 154.985,326.942 154.000 C 326.625 152.275,326.398 151.949,326.406 153.233 M85.144 153.500 C 83.993 154.889,83.506 155.600,83.704 155.600 C 83.814 155.600,84.386 154.970,84.973 154.200 C 86.063 152.771,86.195 152.232,85.144 153.500 M200.400 153.385 C 200.400 153.550,200.914 154.341,201.542 155.142 C 202.170 155.944,203.546 157.905,204.600 159.500 C 205.655 161.095,206.592 162.400,206.682 162.400 C 206.894 162.400,206.613 161.928,204.659 159.000 C 202.565 155.861,200.400 153.007,200.400 153.385 M309.254 153.867 C 309.225 154.344,309.096 155.064,308.970 155.467 C 308.752 156.161,308.764 156.162,309.196 155.488 C 309.447 155.097,309.575 154.377,309.481 153.888 C 309.309 153.001,309.309 153.001,309.254 153.867 M288.926 154.800 C 289.402 156.333,290.557 159.040,290.889 159.400 C 291.316 159.864,289.742 155.732,289.142 154.815 C 288.801 154.294,288.768 154.292,288.926 154.800 M82.165 157.411 C 81.573 158.187,81.172 158.906,81.275 159.008 C 81.377 159.111,81.932 158.476,82.507 157.597 C 83.801 155.621,83.609 155.517,82.165 157.411 M327.268 157.200 C 327.262 157.750,327.411 158.560,327.600 159.000 L 327.944 159.800 327.932 159.000 C 327.926 158.560,327.776 157.750,327.600 157.200 L 327.280 156.200 327.268 157.200 M308.454 157.600 C 308.419 158.150,308.296 159.050,308.183 159.600 L 307.977 160.600 308.407 159.615 C 308.643 159.074,308.765 158.174,308.678 157.615 L 308.520 156.600 308.454 157.600 M79.414 161.835 C 79.041 162.404,78.805 162.938,78.889 163.022 C 78.973 163.107,79.358 162.641,79.744 161.988 C 80.606 160.528,80.348 160.409,79.414 161.835 M328.028 161.833 C 328.044 162.475,328.216 163.360,328.410 163.800 C 328.647 164.334,328.686 164.002,328.527 162.800 C 328.246 160.680,327.988 160.180,328.028 161.833 M307.659 162.600 C 307.620 163.260,307.496 164.250,307.383 164.800 L 307.177 165.800 307.608 164.814 C 307.844 164.272,307.968 163.282,307.883 162.614 L 307.728 161.400 307.659 162.600 M77.814 164.635 C 77.441 165.204,77.205 165.738,77.289 165.822 C 77.373 165.907,77.758 165.441,78.144 164.788 C 79.006 163.328,78.748 163.209,77.814 164.635 M208.400 166.050 C 208.400 166.398,209.637 168.800,209.817 168.800 C 209.904 168.800,209.861 168.485,209.721 168.100 C 209.433 167.306,208.400 165.703,208.400 166.050 M328.847 167.633 C 328.873 168.385,329.041 169.540,329.220 170.200 C 329.435 170.989,329.470 170.578,329.323 169.000 C 329.077 166.355,328.773 165.481,328.847 167.633 M227.850 168.450 C 227.517 170.117,227.840 170.440,228.200 168.800 C 228.352 168.109,228.393 167.459,228.291 167.358 C 228.189 167.256,227.991 167.747,227.850 168.450 M306.670 169.357 C 306.511 170.653,306.461 171.794,306.560 171.893 C 306.826 172.159,307.303 168.618,307.119 167.747 C 307.032 167.336,306.830 168.060,306.670 169.357 M293.628 168.676 C 293.613 169.158,293.780 169.664,294.000 169.800 C 294.473 170.092,294.473 169.701,294.000 168.600 C 293.669 167.829,293.655 167.831,293.628 168.676 M75.072 170.219 C 74.132 172.189,74.264 172.524,75.247 170.662 C 75.693 169.816,75.987 169.054,75.901 168.967 C 75.814 168.881,75.441 169.444,75.072 170.219 M294.406 171.833 C 294.409 172.255,294.595 172.870,294.818 173.200 C 295.115 173.638,295.152 173.476,294.956 172.600 C 294.627 171.129,294.398 170.810,294.406 171.833 M329.676 175.200 C 329.660 176.190,329.795 177.720,329.977 178.600 L 330.308 180.200 330.319 178.800 C 330.325 178.030,330.190 176.500,330.018 175.400 L 329.707 173.400 329.676 175.200 M226.449 174.600 C 226.416 175.040,226.296 175.850,226.183 176.400 L 225.977 177.400 226.406 176.419 C 226.642 175.879,226.761 175.069,226.672 174.619 C 226.513 173.821,226.507 173.821,226.449 174.600 M295.246 175.600 C 295.227 176.150,295.387 176.870,295.600 177.200 C 296.094 177.964,296.094 177.142,295.600 175.600 L 295.280 174.600 295.246 175.600 M305.830 178.334 C 305.668 180.388,305.622 182.155,305.729 182.262 C 305.992 182.525,306.537 175.807,306.307 175.134 C 306.207 174.840,305.993 176.280,305.830 178.334 M225.654 178.800 C 225.619 179.350,225.496 180.250,225.383 180.800 L 225.177 181.800 225.607 180.815 C 225.843 180.274,225.965 179.374,225.878 178.815 L 225.720 177.800 225.654 178.800 M296.087 180.200 C 296.083 180.860,296.224 181.850,296.400 182.400 L 296.720 183.400 296.713 182.400 C 296.709 181.850,296.568 180.860,296.400 180.200 L 296.095 179.000 296.087 180.200 M71.400 180.800 C 71.250 181.273,71.217 181.750,71.327 181.860 C 71.437 181.970,71.650 181.673,71.800 181.200 C 71.950 180.727,71.983 180.250,71.873 180.140 C 71.763 180.030,71.550 180.327,71.400 180.800 M214.056 180.800 C 214.056 181.130,214.211 181.760,214.400 182.200 C 214.617 182.704,214.744 182.778,214.744 182.400 C 214.744 182.070,214.589 181.440,214.400 181.000 C 214.183 180.496,214.056 180.422,214.056 180.800 M70.650 184.050 C 70.317 185.717,70.640 186.040,71.000 184.400 C 71.152 183.709,71.193 183.059,71.091 182.958 C 70.989 182.856,70.791 183.347,70.650 184.050 M224.658 185.959 C 224.507 187.586,224.461 188.995,224.557 189.090 C 224.806 189.339,225.321 184.163,225.110 183.530 C 225.013 183.239,224.810 184.332,224.658 185.959 M214.856 184.200 C 214.856 184.640,215.011 185.360,215.200 185.800 L 215.544 186.600 215.544 185.800 C 215.544 185.360,215.389 184.640,215.200 184.200 L 214.856 183.400 214.856 184.200 M330.600 200.200 C 330.600 209.000,330.713 214.310,330.851 212.000 C 330.989 209.690,331.102 204.380,331.102 200.200 C 331.102 196.020,330.989 190.710,330.851 188.400 C 330.713 186.090,330.600 191.400,330.600 200.200 M296.886 186.600 C 296.883 187.480,297.024 188.650,297.200 189.200 L 297.520 190.200 297.537 189.200 C 297.546 188.650,297.405 187.480,297.223 186.600 L 296.892 185.000 296.886 186.600 M69.822 188.622 C 69.672 189.425,69.638 190.172,69.748 190.282 C 69.858 190.392,70.072 189.825,70.222 189.022 C 70.373 188.219,70.406 187.473,70.296 187.363 C 70.186 187.253,69.973 187.819,69.822 188.622 M305.378 199.800 C 305.379 206.840,305.433 209.664,305.499 206.075 C 305.566 202.486,305.566 196.726,305.499 193.275 C 305.433 189.824,305.378 192.760,305.378 199.800 M215.687 188.600 C 215.683 189.260,215.824 190.250,216.000 190.800 L 216.320 191.800 216.313 190.800 C 216.309 190.250,216.168 189.260,216.000 188.600 L 215.695 187.400 215.687 188.600 M224.167 200.000 C 224.167 204.290,224.226 206.045,224.298 203.900 C 224.370 201.755,224.370 198.245,224.298 196.100 C 224.226 193.955,224.167 195.710,224.167 200.000 M68.989 196.605 C 68.833 198.697,68.879 201.982,69.094 203.905 C 69.468 207.264,69.485 207.117,69.542 200.100 C 69.606 192.011,69.422 190.841,68.989 196.605 M216.559 199.600 C 216.559 202.790,216.621 204.095,216.697 202.500 C 216.773 200.905,216.773 198.295,216.697 196.700 C 216.621 195.105,216.559 196.410,216.559 199.600 M297.750 200.200 C 297.751 202.620,297.816 203.558,297.896 202.285 C 297.976 201.012,297.975 199.032,297.894 197.885 C 297.814 196.738,297.749 197.780,297.750 200.200 M215.800 210.000 C 215.646 210.910,215.611 211.744,215.721 211.854 C 215.831 211.964,216.046 211.310,216.200 210.400 C 216.354 209.490,216.389 208.656,216.279 208.546 C 216.169 208.436,215.954 209.090,215.800 210.000 M296.992 211.738 C 296.839 213.169,296.797 214.578,296.898 214.870 C 297.000 215.161,297.219 214.084,297.385 212.476 C 297.550 210.868,297.592 209.459,297.478 209.345 C 297.364 209.231,297.145 210.308,296.992 211.738 M69.668 210.200 C 69.674 210.640,69.824 211.450,70.000 212.000 L 70.320 213.000 70.332 212.000 C 70.338 211.450,70.189 210.640,70.000 210.200 L 69.656 209.400 69.668 210.200 M224.681 213.600 C 224.804 215.250,224.971 216.675,225.052 216.767 C 225.331 217.081,225.154 213.801,224.806 212.200 C 224.548 211.014,224.516 211.376,224.681 213.600 M215.029 214.629 C 214.881 215.215,214.838 215.772,214.932 215.866 C 215.027 215.960,215.224 215.558,215.371 214.971 C 215.519 214.385,215.562 213.828,215.468 213.734 C 215.373 213.640,215.176 214.042,215.029 214.629 M70.468 214.800 C 70.488 215.839,71.118 217.546,71.132 216.600 C 71.138 216.160,70.989 215.440,70.800 215.000 C 70.589 214.510,70.461 214.432,70.468 214.800 M296.182 218.582 C 296.029 219.602,295.994 220.527,296.104 220.637 C 296.214 220.747,296.429 220.002,296.582 218.982 C 296.735 217.961,296.770 217.037,296.660 216.927 C 296.550 216.817,296.335 217.561,296.182 218.582 M214.229 218.229 C 214.081 218.815,214.038 219.372,214.132 219.466 C 214.227 219.560,214.424 219.158,214.571 218.571 C 214.719 217.985,214.762 217.428,214.668 217.334 C 214.573 217.240,214.376 217.642,214.229 218.229 M305.693 219.000 C 305.685 219.880,305.816 221.590,305.983 222.800 L 306.287 225.000 306.309 223.200 C 306.320 222.210,306.190 220.500,306.018 219.400 C 305.718 217.469,305.706 217.455,305.693 219.000 M225.472 219.800 C 225.599 220.900,225.769 221.875,225.851 221.967 C 226.132 222.282,225.920 219.799,225.580 218.800 C 225.351 218.126,225.316 218.451,225.472 219.800 M329.889 221.756 C 329.730 222.832,329.623 224.452,329.651 225.356 C 329.689 226.614,329.786 226.342,330.063 224.200 C 330.478 220.979,330.324 218.811,329.889 221.756 M295.400 223.600 C 295.248 224.291,295.207 224.941,295.309 225.042 C 295.411 225.144,295.609 224.653,295.750 223.950 C 295.891 223.247,295.931 222.598,295.841 222.508 C 295.750 222.417,295.552 222.909,295.400 223.600 M226.262 224.200 C 226.396 225.080,226.572 225.875,226.653 225.967 C 226.956 226.310,226.729 224.168,226.381 223.400 C 226.129 222.842,226.093 223.085,226.262 224.200 M294.649 227.015 C 294.512 227.373,294.415 227.966,294.434 228.333 C 294.453 228.700,294.627 228.469,294.821 227.820 C 295.198 226.558,295.065 225.933,294.649 227.015 M227.058 228.000 C 227.375 229.725,227.602 230.051,227.594 228.767 C 227.591 228.235,227.411 227.530,227.194 227.200 C 226.918 226.778,226.877 227.015,227.058 228.000 M306.669 230.200 C 306.796 231.520,306.968 232.675,307.050 232.767 C 307.341 233.090,307.116 229.786,306.779 228.800 C 306.558 228.152,306.520 228.645,306.669 230.200 M329.072 230.204 C 328.927 231.082,328.829 232.340,328.853 233.000 C 328.878 233.660,329.055 233.120,329.248 231.800 C 329.640 229.115,329.485 227.707,329.072 230.204 M293.849 230.215 C 293.712 230.573,293.615 231.166,293.634 231.533 C 293.653 231.900,293.827 231.669,294.021 231.020 C 294.398 229.758,294.265 229.133,293.849 230.215 M227.668 230.400 C 227.688 231.439,228.318 233.146,228.332 232.200 C 228.338 231.760,228.189 231.040,228.000 230.600 C 227.789 230.110,227.661 230.032,227.668 230.400 M208.675 233.275 C 208.073 234.397,207.663 235.397,207.764 235.497 C 207.864 235.597,208.420 234.744,209.000 233.600 C 210.371 230.894,210.099 230.621,208.675 233.275 M293.049 233.415 C 292.912 233.773,292.815 234.366,292.834 234.733 C 292.853 235.100,293.027 234.869,293.221 234.220 C 293.598 232.958,293.465 232.333,293.049 233.415 M307.275 235.000 C 307.286 235.440,307.432 236.340,307.600 237.000 L 307.905 238.200 307.925 237.000 C 307.935 236.340,307.789 235.440,307.600 235.000 L 307.256 234.200 307.275 235.000 M77.960 235.400 C 78.634 236.705,79.188 237.428,79.185 237.000 C 79.183 236.780,78.814 236.150,78.364 235.600 C 77.821 234.936,77.685 234.869,77.960 235.400 M328.182 236.982 C 328.029 238.002,327.994 238.927,328.104 239.037 C 328.214 239.147,328.429 238.402,328.582 237.382 C 328.735 236.361,328.770 235.437,328.660 235.327 C 328.550 235.217,328.335 235.961,328.182 236.982 M229.616 237.054 C 229.607 237.304,229.863 238.114,230.184 238.854 C 230.506 239.594,230.776 239.996,230.784 239.746 C 230.793 239.496,230.537 238.686,230.216 237.946 C 229.894 237.206,229.624 236.804,229.616 237.054 M79.549 238.200 C 79.765 238.640,80.234 239.360,80.593 239.800 L 81.244 240.600 80.851 239.800 C 80.635 239.360,80.166 238.640,79.807 238.200 L 79.156 237.400 79.549 238.200 M203.955 241.390 C 202.720 243.254,201.866 244.683,202.057 244.565 C 202.687 244.176,206.692 237.999,206.314 238.000 C 206.251 238.000,205.190 239.526,203.955 241.390 M308.262 241.000 C 308.396 241.880,308.572 242.675,308.653 242.767 C 308.956 243.110,308.729 240.968,308.381 240.200 C 308.129 239.642,308.093 239.885,308.262 241.000 M290.267 241.667 C 289.905 242.588,289.674 243.407,289.754 243.488 C 289.834 243.568,290.200 242.883,290.567 241.967 C 290.933 241.050,291.164 240.231,291.079 240.146 C 290.994 240.061,290.629 240.745,290.267 241.667 M327.400 241.600 C 327.248 242.291,327.207 242.941,327.309 243.042 C 327.411 243.144,327.609 242.653,327.750 241.950 C 327.891 241.247,327.931 240.598,327.841 240.508 C 327.750 240.417,327.552 240.909,327.400 241.600 M309.058 245.200 C 309.375 246.925,309.602 247.251,309.594 245.967 C 309.591 245.435,309.411 244.730,309.194 244.400 C 308.918 243.978,308.877 244.215,309.058 245.200 M326.649 245.415 C 326.512 245.773,326.415 246.366,326.434 246.733 C 326.453 247.100,326.627 246.869,326.821 246.220 C 327.198 244.958,327.065 244.333,326.649 245.415 M199.768 247.100 C 198.928 248.145,198.655 248.640,199.163 248.200 C 200.117 247.374,201.792 245.200,201.475 245.200 C 201.377 245.200,200.609 246.055,199.768 247.100 M309.844 248.600 C 310.173 250.071,310.402 250.390,310.394 249.367 C 310.391 248.945,310.205 248.330,309.982 248.000 C 309.685 247.562,309.648 247.724,309.844 248.600 M325.829 249.029 C 325.681 249.615,325.638 250.172,325.732 250.266 C 325.827 250.360,326.024 249.958,326.171 249.371 C 326.319 248.785,326.362 248.228,326.268 248.134 C 326.173 248.040,325.976 248.442,325.829 249.029 M88.600 250.400 C 89.683 251.500,90.647 252.400,90.741 252.400 C 91.080 252.400,87.391 248.480,87.015 248.441 C 86.803 248.418,87.517 249.300,88.600 250.400 M194.991 252.500 L 191.800 255.800 195.100 252.609 C 198.165 249.646,198.582 249.200,198.291 249.200 C 198.230 249.200,196.745 250.685,194.991 252.500 M325.049 251.415 C 324.912 251.773,324.815 252.366,324.834 252.733 C 324.853 253.100,325.027 252.869,325.221 252.220 C 325.598 250.958,325.465 250.333,325.049 251.415 M90.842 252.900 C 90.938 252.955,92.003 253.900,93.208 255.000 L 95.400 257.000 93.415 254.900 C 92.323 253.745,91.258 252.800,91.048 252.800 C 90.838 252.800,90.745 252.845,90.842 252.900 M324.155 254.300 C 324.034 254.685,323.770 255.413,323.567 255.919 C 323.365 256.424,323.205 256.964,323.212 257.119 C 323.233 257.609,324.059 255.988,324.408 254.771 C 324.763 253.534,324.531 253.103,324.155 254.300 M238.787 256.100 C 240.188 258.027,242.754 261.031,241.935 259.786 C 240.972 258.321,237.908 254.400,237.727 254.400 C 237.630 254.400,238.107 255.165,238.787 256.100 M282.226 256.700 C 281.362 257.805,281.293 257.990,281.963 257.404 C 282.765 256.704,283.823 255.200,283.514 255.200 C 283.451 255.200,282.872 255.875,282.226 256.700 M189.854 257.033 C 189.223 257.587,188.774 258.107,188.854 258.187 C 188.935 258.268,189.588 257.809,190.307 257.167 C 191.025 256.525,191.475 256.006,191.306 256.013 C 191.138 256.020,190.484 256.479,189.854 257.033 M95.724 257.077 C 96.060 257.621,99.200 260.155,99.200 259.882 C 99.200 259.780,98.353 259.003,97.319 258.155 C 96.284 257.307,95.566 256.822,95.724 257.077 M186.785 259.629 L 185.400 260.858 186.900 259.781 C 188.226 258.830,188.657 258.400,188.285 258.400 C 188.222 258.400,187.547 258.953,186.785 259.629 M278.375 261.162 C 276.931 262.663,274.726 264.572,273.475 265.403 C 270.891 267.118,270.418 267.713,272.743 266.323 C 274.922 265.020,278.095 262.255,279.801 260.173 C 281.816 257.713,281.438 257.975,278.375 261.162 M313.964 259.533 C 314.180 259.936,314.671 260.521,315.055 260.833 C 315.487 261.184,315.390 260.904,314.801 260.100 C 313.751 258.665,313.357 258.398,313.964 259.533 M320.000 261.600 C 319.450 262.030,319.197 262.386,319.438 262.391 C 319.679 262.396,320.202 262.040,320.600 261.600 C 321.512 260.592,321.288 260.592,320.000 261.600 M180.818 263.450 C 180.058 263.989,179.338 264.537,179.218 264.666 C 178.854 265.060,181.344 263.704,182.200 263.043 C 183.506 262.035,182.319 262.384,180.818 263.450 M244.529 262.671 C 244.684 262.930,245.574 263.721,246.506 264.429 C 248.087 265.630,248.120 265.639,246.997 264.558 C 245.401 263.021,244.178 262.086,244.529 262.671 M255.200 269.194 C 255.530 269.411,256.235 269.591,256.767 269.594 C 258.051 269.602,257.725 269.375,256.000 269.058 C 255.015 268.877,254.778 268.918,255.200 269.194 M265.200 269.200 C 264.376 269.464,264.341 269.526,265.000 269.554 C 265.440 269.573,266.070 269.413,266.400 269.200 C 267.101 268.747,266.614 268.747,265.200 269.200 M165.275 270.484 C 163.887 270.924,162.824 271.358,162.915 271.448 C 163.114 271.647,168.400 270.043,168.400 269.784 C 168.400 269.522,168.103 269.589,165.275 270.484 M259.491 269.889 C 260.201 269.977,261.461 269.979,262.291 269.892 C 263.121 269.805,262.540 269.733,261.000 269.731 C 259.460 269.729,258.781 269.800,259.491 269.889 M122.800 271.582 C 123.130 271.805,123.745 271.991,124.167 271.994 C 125.190 272.002,124.871 271.773,123.400 271.444 C 122.524 271.248,122.362 271.285,122.800 271.582 M159.200 272.220 C 158.210 272.504,157.760 272.747,158.200 272.762 C 158.640 272.776,159.810 272.533,160.800 272.221 C 163.038 271.516,161.662 271.515,159.200 272.220 M130.433 273.347 C 130.525 273.428,131.770 273.593,133.200 273.715 C 134.838 273.854,135.356 273.818,134.600 273.615 C 133.378 273.289,130.130 273.080,130.433 273.347 M151.200 273.600 C 149.201 274.021,151.252 274.038,153.600 273.620 C 155.224 273.332,155.263 273.300,154.000 273.303 C 153.230 273.304,151.970 273.438,151.200 273.600 M140.118 274.298 C 141.833 274.373,144.533 274.372,146.118 274.297 C 147.703 274.221,146.300 274.159,143.000 274.160 C 139.700 274.161,138.403 274.222,140.118 274.298 " stroke="none" fill="#848484" fill-rule="evenodd"></path><path id="path3" d="M139.800 125.200 C 138.745 125.389,139.836 125.488,143.000 125.490 C 146.727 125.492,147.353 125.424,145.800 125.182 C 143.416 124.810,141.952 124.815,139.800 125.200 M132.000 125.995 C 131.591 126.255,131.910 126.299,133.000 126.132 C 134.977 125.829,135.314 125.598,133.767 125.606 C 133.125 125.609,132.330 125.784,132.000 125.995 M150.833 125.749 C 150.925 125.831,151.900 126.007,153.000 126.141 C 154.346 126.305,154.739 126.265,154.200 126.020 C 153.439 125.674,150.483 125.436,150.833 125.749 M127.390 126.816 C 127.221 127.089,127.523 127.138,128.266 126.960 C 129.799 126.592,129.944 126.400,128.690 126.400 C 128.117 126.400,127.532 126.587,127.390 126.816 M156.000 126.555 C 156.000 126.640,156.530 126.787,157.179 126.882 C 157.827 126.977,158.267 126.908,158.155 126.728 C 157.957 126.407,156.000 126.250,156.000 126.555 M160.800 127.600 C 161.130 127.813,161.670 127.988,162.000 127.988 C 162.533 127.988,162.533 127.945,162.000 127.600 C 161.670 127.387,161.130 127.212,160.800 127.212 C 160.267 127.212,160.267 127.255,160.800 127.600 M256.800 130.018 C 256.362 130.315,256.524 130.352,257.400 130.156 C 258.871 129.827,259.190 129.598,258.167 129.606 C 257.745 129.609,257.130 129.795,256.800 130.018 M263.600 130.000 C 265.142 130.494,265.964 130.494,265.200 130.000 C 264.870 129.787,264.150 129.627,263.600 129.646 L 262.600 129.680 263.600 130.000 M107.164 134.308 C 103.373 136.453,98.411 139.746,98.405 140.120 C 98.402 140.296,99.572 139.604,101.005 138.582 C 102.438 137.559,105.183 135.840,107.105 134.762 C 109.027 133.684,110.420 132.805,110.200 132.809 C 109.980 132.813,108.614 133.488,107.164 134.308 M246.629 134.811 C 245.765 135.465,245.225 135.995,245.429 135.989 C 245.807 135.978,248.765 133.621,248.400 133.622 C 248.290 133.622,247.493 134.157,246.629 134.811 M275.779 135.800 C 276.994 136.790,278.099 137.600,278.234 137.600 C 278.594 137.600,274.257 134.019,273.884 134.009 C 273.711 134.004,274.563 134.810,275.779 135.800 M179.000 134.698 C 179.575 135.297,184.000 138.063,184.000 137.825 C 184.000 137.715,183.055 137.024,181.900 136.290 C 179.085 134.500,178.501 134.179,179.000 134.698 M314.975 138.500 L 313.800 139.800 315.198 138.600 C 315.967 137.940,316.672 137.355,316.765 137.300 C 316.857 137.245,316.757 137.200,316.542 137.200 C 316.326 137.200,315.621 137.785,314.975 138.500 M319.676 137.619 C 320.048 137.836,320.903 138.681,321.576 139.498 C 322.249 140.314,322.800 140.852,322.800 140.692 C 322.800 140.187,319.927 137.199,319.453 137.212 C 319.204 137.219,319.304 137.402,319.676 137.619 M240.500 140.816 C 239.237 142.375,239.371 142.733,240.650 141.214 C 241.227 140.528,241.632 139.908,241.550 139.836 C 241.467 139.764,240.995 140.205,240.500 140.816 M281.991 142.388 C 282.457 143.041,283.042 143.702,283.291 143.856 C 283.541 144.011,283.241 143.476,282.625 142.668 C 281.288 140.915,280.784 140.692,281.991 142.388 M94.654 143.033 C 94.023 143.587,93.587 144.120,93.683 144.216 C 93.779 144.313,94.374 143.854,95.004 143.196 C 96.396 141.743,96.216 141.659,94.654 143.033 M195.012 147.200 C 197.436 149.730,200.106 152.610,200.944 153.600 C 202.373 155.288,202.365 155.265,200.815 153.224 C 198.987 150.817,195.569 147.163,192.563 144.400 C 191.485 143.410,192.587 144.670,195.012 147.200 M237.336 145.300 C 235.389 148.383,233.962 150.895,234.086 151.020 C 234.154 151.087,235.232 149.446,236.483 147.371 C 238.741 143.626,239.392 142.045,237.336 145.300 M89.986 147.500 L 87.800 149.800 90.100 147.614 C 92.237 145.582,92.583 145.200,92.286 145.200 C 92.224 145.200,91.189 146.235,89.986 147.500 M233.179 152.655 C 232.958 153.236,232.852 153.785,232.943 153.876 C 233.033 153.967,233.299 153.492,233.533 152.820 C 234.053 151.328,233.739 151.182,233.179 152.655 M84.000 154.400 C 83.303 155.280,82.823 156.000,82.933 156.000 C 83.043 156.000,83.703 155.280,84.400 154.400 C 85.097 153.520,85.577 152.800,85.467 152.800 C 85.357 152.800,84.697 153.520,84.000 154.400 M327.044 154.200 C 327.373 155.671,327.602 155.990,327.594 154.967 C 327.591 154.545,327.405 153.930,327.182 153.600 C 326.885 153.162,326.848 153.324,327.044 154.200 M308.667 154.267 C 308.520 154.413,308.411 154.908,308.425 155.367 C 308.449 156.133,308.482 156.123,308.834 155.242 C 309.226 154.263,309.144 153.789,308.667 154.267 M203.374 157.000 C 204.767 159.052,205.052 159.295,204.277 157.771 C 203.934 157.095,203.349 156.290,202.978 155.982 C 202.607 155.674,202.785 156.132,203.374 157.000 M327.868 158.200 C 328.171 160.177,328.402 160.514,328.394 158.967 C 328.391 158.325,328.216 157.530,328.005 157.200 C 327.745 156.791,327.701 157.110,327.868 158.200 M307.849 158.215 C 307.712 158.573,307.618 159.346,307.640 159.933 C 307.673 160.791,307.752 160.695,308.046 159.440 C 308.422 157.839,308.295 157.053,307.849 158.215 M205.200 159.447 C 205.200 159.667,205.464 160.196,205.787 160.624 C 206.110 161.051,206.375 161.220,206.375 161.000 C 206.375 160.780,206.110 160.251,205.787 159.824 C 205.464 159.396,205.200 159.227,205.200 159.447 M328.673 162.800 C 328.804 163.790,328.976 164.675,329.056 164.767 C 329.357 165.114,329.128 162.564,328.790 161.800 C 328.553 161.266,328.514 161.598,328.673 162.800 M307.076 162.810 C 306.930 163.355,306.828 164.340,306.849 165.000 C 306.880 165.957,306.959 165.836,307.242 164.400 C 307.629 162.433,307.502 161.217,307.076 162.810 M329.499 169.400 C 329.616 170.940,329.777 172.275,329.856 172.367 C 330.134 172.688,329.917 168.589,329.603 167.600 C 329.419 167.019,329.375 167.773,329.499 169.400 M294.034 168.400 C 294.046 168.730,294.211 169.360,294.400 169.800 L 294.744 170.600 294.766 169.800 C 294.778 169.360,294.613 168.730,294.400 168.400 C 294.055 167.867,294.015 167.867,294.034 168.400 M306.124 171.800 C 306.126 173.120,306.201 173.612,306.290 172.893 C 306.379 172.174,306.377 171.094,306.286 170.493 C 306.195 169.892,306.122 170.480,306.124 171.800 M226.667 171.467 C 226.520 171.613,226.411 172.108,226.425 172.567 C 226.449 173.333,226.482 173.323,226.834 172.442 C 227.226 171.463,227.144 170.989,226.667 171.467 M295.040 172.666 C 295.408 174.199,295.600 174.344,295.600 173.090 C 295.600 172.517,295.413 171.932,295.184 171.790 C 294.911 171.621,294.862 171.923,295.040 172.666 M330.315 177.800 C 330.421 180.000,330.574 181.875,330.654 181.967 C 330.920 182.270,330.711 176.222,330.413 175.000 C 330.253 174.340,330.208 175.600,330.315 177.800 M225.800 175.600 C 225.648 176.291,225.607 176.941,225.709 177.042 C 225.811 177.144,226.009 176.653,226.150 175.950 C 226.483 174.283,226.160 173.960,225.800 175.600 M305.460 177.290 C 305.321 178.451,305.231 180.660,305.261 182.200 C 305.304 184.418,305.383 184.005,305.639 180.214 C 305.978 175.182,305.889 173.721,305.460 177.290 M213.844 178.600 C 214.173 180.071,214.402 180.390,214.394 179.367 C 214.391 178.945,214.205 178.330,213.982 178.000 C 213.685 177.562,213.648 177.724,213.844 178.600 M225.049 179.415 C 224.912 179.773,224.818 180.546,224.840 181.133 C 224.873 181.991,224.952 181.895,225.246 180.640 C 225.622 179.039,225.495 178.253,225.049 179.415 M296.688 181.200 C 296.811 182.410,296.977 183.475,297.056 183.567 C 297.353 183.911,297.130 180.567,296.804 179.800 C 296.592 179.302,296.549 179.831,296.688 181.200 M214.658 181.600 C 214.975 183.325,215.202 183.651,215.194 182.367 C 215.191 181.835,215.011 181.130,214.794 180.800 C 214.518 180.378,214.477 180.615,214.658 181.600 M70.249 183.815 C 70.112 184.173,70.021 184.946,70.046 185.533 C 70.080 186.332,70.170 186.198,70.404 185.000 C 70.735 183.300,70.662 182.740,70.249 183.815 M224.253 185.636 C 224.114 186.331,224.024 187.733,224.054 188.750 C 224.097 190.209,224.175 189.966,224.422 187.601 C 224.753 184.431,224.675 183.525,224.253 185.636 M330.924 186.600 C 330.926 187.920,331.001 188.412,331.090 187.693 C 331.179 186.974,331.177 185.894,331.086 185.293 C 330.995 184.692,330.922 185.280,330.924 186.600 M215.693 186.000 C 215.693 186.770,215.775 187.085,215.876 186.700 C 215.976 186.315,215.976 185.685,215.876 185.300 C 215.775 184.915,215.693 185.230,215.693 186.000 M297.492 188.600 C 297.588 190.580,297.727 192.380,297.801 192.600 C 298.084 193.435,297.906 186.952,297.620 186.000 C 297.454 185.450,297.397 186.620,297.492 188.600 M304.940 190.400 C 304.940 192.270,305.009 193.035,305.093 192.100 C 305.177 191.165,305.177 189.635,305.093 188.700 C 305.009 187.765,304.940 188.530,304.940 190.400 M69.309 190.000 C 69.309 190.990,69.387 191.395,69.482 190.900 C 69.578 190.405,69.578 189.595,69.482 189.100 C 69.387 188.605,69.309 189.010,69.309 190.000 M216.520 191.200 C 216.520 192.410,216.595 192.905,216.687 192.300 C 216.778 191.695,216.778 190.705,216.687 190.100 C 216.595 189.495,216.520 189.990,216.520 191.200 M331.371 200.000 C 331.371 204.950,331.428 206.975,331.499 204.500 C 331.569 202.025,331.569 197.975,331.499 195.500 C 331.428 193.025,331.371 195.050,331.371 200.000 M68.893 193.600 C 68.893 194.370,68.975 194.685,69.076 194.300 C 69.176 193.915,69.176 193.285,69.076 192.900 C 68.975 192.515,68.893 192.830,68.893 193.600 M216.961 200.000 C 216.961 203.410,217.022 204.805,217.097 203.100 C 217.172 201.395,217.172 198.605,217.097 196.900 C 217.022 195.195,216.961 196.590,216.961 200.000 M223.760 199.800 C 223.761 203.100,223.822 204.397,223.898 202.682 C 223.973 200.967,223.972 198.267,223.897 196.682 C 223.821 195.097,223.759 196.500,223.760 199.800 M304.440 199.633 C 304.462 202.805,304.613 206.930,304.775 208.800 C 304.946 210.764,304.990 208.399,304.880 203.200 C 304.775 198.250,304.624 194.125,304.544 194.033 C 304.465 193.942,304.418 196.462,304.440 199.633 M298.146 200.200 C 298.147 202.400,298.214 203.249,298.295 202.087 C 298.376 200.924,298.376 199.124,298.293 198.087 C 298.211 197.049,298.145 198.000,298.146 200.200 M216.520 208.800 C 216.520 210.010,216.595 210.505,216.687 209.900 C 216.778 209.295,216.778 208.305,216.687 207.700 C 216.595 207.095,216.520 207.590,216.520 208.800 M297.674 209.600 C 297.628 211.030,297.506 212.920,297.402 213.800 L 297.212 215.400 297.621 213.800 C 297.846 212.920,297.969 211.030,297.894 209.600 L 297.757 207.000 297.674 209.600 M69.309 210.000 C 69.309 210.990,69.387 211.395,69.482 210.900 C 69.578 210.405,69.578 209.595,69.482 209.100 C 69.387 208.605,69.309 209.010,69.309 210.000 M224.006 211.833 C 224.009 213.135,224.171 214.450,224.365 214.756 C 224.577 215.091,224.633 214.216,224.506 212.556 C 224.240 209.089,223.998 208.739,224.006 211.833 M330.928 213.600 C 330.928 215.030,331.001 215.615,331.089 214.900 C 331.178 214.185,331.178 213.015,331.089 212.300 C 331.001 211.585,330.928 212.170,330.928 213.600 M215.654 213.600 C 215.619 214.150,215.496 215.050,215.383 215.600 L 215.177 216.600 215.607 215.615 C 215.843 215.074,215.965 214.174,215.878 213.615 L 215.720 212.600 215.654 213.600 M305.344 218.400 C 305.344 220.490,305.412 221.345,305.494 220.300 C 305.576 219.255,305.576 217.545,305.494 216.500 C 305.412 215.455,305.344 216.310,305.344 218.400 M296.864 217.050 C 296.829 217.738,296.711 218.907,296.601 219.650 L 296.403 221.000 296.824 219.658 C 297.055 218.920,297.173 217.750,297.086 217.058 L 296.928 215.800 296.864 217.050 M214.854 217.467 C 214.825 217.944,214.696 218.664,214.570 219.067 C 214.352 219.761,214.364 219.762,214.796 219.088 C 215.047 218.697,215.175 217.977,215.081 217.488 C 214.909 216.601,214.909 216.601,214.854 217.467 M70.806 218.233 C 70.809 218.655,70.995 219.270,71.218 219.600 C 71.515 220.038,71.552 219.876,71.356 219.000 C 71.027 217.529,70.798 217.210,70.806 218.233 M330.540 220.800 C 330.540 222.670,330.609 223.435,330.693 222.500 C 330.777 221.565,330.777 220.035,330.693 219.100 C 330.609 218.165,330.540 218.930,330.540 220.800 M224.806 218.833 C 224.809 219.365,224.989 220.070,225.206 220.400 C 225.482 220.822,225.523 220.585,225.342 219.600 C 225.025 217.875,224.798 217.549,224.806 218.833 M214.046 220.467 C 214.021 220.834,213.896 221.464,213.770 221.867 C 213.552 222.562,213.563 222.563,213.997 221.887 C 214.248 221.496,214.373 220.866,214.273 220.487 C 214.111 219.868,214.088 219.866,214.046 220.467 M71.606 221.033 C 71.609 221.455,71.795 222.070,72.018 222.400 C 72.315 222.838,72.352 222.676,72.156 221.800 C 71.827 220.329,71.598 220.010,71.606 221.033 M296.060 222.467 C 296.027 223.054,295.896 223.864,295.770 224.267 C 295.552 224.960,295.565 224.961,295.995 224.290 C 296.246 223.899,296.377 223.089,296.286 222.490 L 296.120 221.400 296.060 222.467 M225.600 223.776 C 225.600 224.313,225.747 224.844,225.928 224.955 C 226.108 225.067,226.177 224.627,226.082 223.979 C 225.872 222.549,225.600 222.435,225.600 223.776 M295.246 226.467 C 295.221 226.834,295.096 227.464,294.970 227.867 C 294.752 228.562,294.763 228.563,295.197 227.887 C 295.448 227.496,295.573 226.866,295.473 226.487 C 295.311 225.868,295.288 225.866,295.246 226.467 M306.124 228.200 C 306.126 229.520,306.201 230.012,306.290 229.293 C 306.379 228.574,306.377 227.494,306.286 226.893 C 306.195 226.292,306.122 226.880,306.124 228.200 M329.670 229.050 C 329.631 229.957,329.511 231.308,329.401 232.050 L 329.203 233.400 329.623 232.062 C 329.853 231.327,329.974 229.977,329.891 229.062 L 329.740 227.400 329.670 229.050 M306.806 235.233 C 306.809 235.985,306.992 236.870,307.212 237.200 C 307.491 237.619,307.533 237.258,307.350 236.000 C 307.025 233.759,306.798 233.440,306.806 235.233 M328.854 236.000 C 328.819 236.550,328.696 237.450,328.583 238.000 L 328.377 239.000 328.807 238.015 C 329.043 237.474,329.165 236.574,329.078 236.015 L 328.920 235.000 328.854 236.000 M307.628 240.033 C 307.644 240.565,307.819 241.360,308.019 241.800 C 308.271 242.358,308.307 242.115,308.138 241.000 C 307.855 239.143,307.587 238.636,307.628 240.033 M328.054 240.667 C 328.025 241.144,327.896 241.864,327.770 242.267 C 327.552 242.961,327.564 242.962,327.996 242.288 C 328.247 241.897,328.375 241.177,328.281 240.688 C 328.109 239.801,328.109 239.801,328.054 240.667 M82.975 244.132 C 83.591 244.939,84.176 245.600,84.275 245.600 C 84.553 245.600,82.821 243.260,82.309 242.944 C 82.059 242.789,82.359 243.324,82.975 244.132 M308.406 244.233 C 308.409 244.655,308.595 245.270,308.818 245.600 C 309.115 246.038,309.152 245.876,308.956 245.000 C 308.627 243.529,308.398 243.210,308.406 244.233 M327.254 244.667 C 327.225 245.144,327.096 245.864,326.970 246.267 C 326.752 246.961,326.764 246.962,327.196 246.288 C 327.447 245.897,327.575 245.177,327.481 244.688 C 327.309 243.801,327.309 243.801,327.254 244.667 M233.018 246.900 C 233.168 247.395,233.455 247.976,233.656 248.191 C 233.857 248.406,233.819 248.001,233.572 247.291 C 233.065 245.838,232.597 245.508,233.018 246.900 M199.600 247.800 C 199.083 248.350,198.827 248.794,199.030 248.787 C 199.372 248.776,201.021 246.800,200.688 246.800 C 200.606 246.800,200.117 247.250,199.600 247.800 M326.446 248.267 C 326.421 248.524,326.284 249.064,326.141 249.467 C 325.940 250.036,325.994 250.097,326.379 249.742 C 326.652 249.491,326.789 248.951,326.684 248.542 C 326.579 248.134,326.472 248.010,326.446 248.267 M87.625 249.831 C 88.381 250.728,89.081 251.397,89.180 251.317 C 89.279 251.238,88.660 250.504,87.805 249.687 L 86.250 248.200 87.625 249.831 M194.696 253.068 C 192.549 255.190,190.848 256.982,190.917 257.050 C 190.985 257.118,192.828 255.380,195.013 253.187 C 197.198 250.994,198.898 249.202,198.792 249.205 C 198.687 249.208,196.843 250.946,194.696 253.068 M235.600 251.720 C 235.600 252.104,237.645 255.200,237.899 255.200 C 238.078 255.200,237.441 254.119,236.139 252.211 C 235.842 251.777,235.600 251.556,235.600 251.720 M93.256 255.541 C 93.510 255.948,94.097 256.511,94.559 256.791 C 95.148 257.147,95.048 256.925,94.225 256.050 C 92.888 254.627,92.586 254.469,93.256 255.541 M241.234 259.847 C 241.765 260.533,242.280 261.023,242.379 260.935 C 242.477 260.847,242.043 260.286,241.413 259.688 L 240.269 258.600 241.234 259.847 M278.587 261.617 C 277.274 262.946,275.255 264.686,274.100 265.483 C 271.810 267.064,271.219 267.773,273.278 266.469 C 274.991 265.385,278.730 262.140,280.139 260.514 C 281.923 258.457,281.204 258.968,278.587 261.617 M320.494 261.612 C 319.775 262.265,319.337 262.800,319.519 262.800 C 319.701 262.800,320.368 262.260,321.000 261.600 C 322.470 260.065,322.186 260.072,320.494 261.612 M181.300 263.646 C 179.937 264.519,179.495 265.106,180.700 264.443 C 181.618 263.939,183.056 262.827,182.800 262.819 C 182.690 262.816,182.015 263.188,181.300 263.646 M244.433 263.300 C 244.525 263.355,245.140 263.850,245.800 264.400 L 247.000 265.400 246.030 264.300 C 245.497 263.695,244.882 263.200,244.664 263.200 C 244.445 263.200,244.342 263.245,244.433 263.300 M105.600 264.541 C 105.600 264.808,109.290 266.843,109.463 266.671 C 109.540 266.593,108.703 266.039,107.602 265.440 C 106.501 264.840,105.600 264.436,105.600 264.541 M248.177 266.142 C 249.022 266.911,252.536 268.807,253.087 268.791 C 253.259 268.786,252.267 268.171,250.881 267.425 C 249.496 266.678,248.138 265.917,247.863 265.734 C 247.587 265.550,247.729 265.734,248.177 266.142 M175.100 267.029 C 173.549 267.870,173.725 268.161,175.300 267.359 C 176.808 266.593,177.075 266.394,176.567 266.416 C 176.365 266.425,175.705 266.701,175.100 267.029 M270.100 267.834 C 269.385 268.146,268.800 268.482,268.800 268.580 C 268.800 268.875,271.184 267.949,271.424 267.561 C 271.691 267.129,271.729 267.121,270.100 267.834 M257.200 269.980 C 258.199 270.320,260.682 270.532,260.367 270.251 C 260.275 270.169,259.300 269.999,258.200 269.872 C 256.851 269.716,256.526 269.751,257.200 269.980 M262.600 270.000 L 261.000 270.286 262.400 270.303 C 263.170 270.313,264.250 270.176,264.800 270.000 C 266.085 269.588,264.899 269.588,262.600 270.000 M128.000 273.182 C 128.330 273.405,128.945 273.591,129.367 273.594 C 130.390 273.602,130.071 273.373,128.600 273.044 C 127.724 272.848,127.562 272.885,128.000 273.182 M156.800 273.200 C 155.976 273.464,155.941 273.526,156.600 273.554 C 157.040 273.573,157.670 273.413,158.000 273.200 C 158.701 272.747,158.214 272.747,156.800 273.200 M132.600 273.981 C 133.368 274.329,135.510 274.556,135.167 274.253 C 135.075 274.172,134.280 273.996,133.400 273.862 C 132.285 273.693,132.042 273.729,132.600 273.981 M151.600 274.000 L 150.200 274.295 151.600 274.341 C 152.370 274.367,153.270 274.213,153.600 274.000 C 154.327 273.530,153.833 273.530,151.600 274.000 M141.312 274.695 C 142.364 274.777,143.984 274.776,144.912 274.692 C 145.840 274.608,144.980 274.541,143.000 274.542 C 141.020 274.543,140.260 274.612,141.312 274.695 " stroke="none" fill="#505050" fill-rule="evenodd"></path><path id="path4" d="M259.700 129.887 C 260.305 129.978,261.295 129.978,261.900 129.887 C 262.505 129.795,262.010 129.720,260.800 129.720 C 259.590 129.720,259.095 129.795,259.700 129.887 M330.493 183.200 C 330.493 183.970,330.575 184.285,330.676 183.900 C 330.776 183.515,330.776 182.885,330.676 182.500 C 330.575 182.115,330.493 182.430,330.493 183.200 M305.293 186.000 C 305.293 186.770,305.375 187.085,305.476 186.700 C 305.576 186.315,305.576 185.685,305.476 185.300 C 305.375 184.915,305.293 185.230,305.293 186.000 M330.901 190.200 C 330.905 191.080,330.987 191.393,331.083 190.895 C 331.179 190.398,331.175 189.678,331.075 189.295 C 330.975 188.913,330.896 189.320,330.901 190.200 M297.709 194.400 C 297.709 195.390,297.787 195.795,297.882 195.300 C 297.978 194.805,297.978 193.995,297.882 193.500 C 297.787 193.005,297.709 193.410,297.709 194.400 M304.963 200.000 C 304.963 203.630,305.023 205.115,305.098 203.300 C 305.172 201.485,305.172 198.515,305.098 196.700 C 305.023 194.885,304.963 196.370,304.963 200.000 M297.701 205.800 C 297.705 206.680,297.787 206.993,297.883 206.495 C 297.979 205.998,297.975 205.278,297.875 204.895 C 297.775 204.513,297.696 204.920,297.701 205.800 M330.893 210.000 C 330.893 210.770,330.975 211.085,331.076 210.700 C 331.176 210.315,331.176 209.685,331.076 209.300 C 330.975 208.915,330.893 209.230,330.893 210.000 M305.293 213.600 C 305.293 214.370,305.375 214.685,305.476 214.300 C 305.576 213.915,305.576 213.285,305.476 212.900 C 305.375 212.515,305.293 212.830,305.293 213.600 " stroke="none" fill="#747474" fill-rule="evenodd"></path></g></svg>